<?xml version="1.0" ?><svg enable-background="new 0 0 100 100" id="Layer_1" version="1.1" viewBox="0 0 100 100" xml:space="preserve" xmlns="http://www.w3.org/2000/svg" xmlns:xlink="http://www.w3.org/1999/xlink"><g><path d="M34.459,52.436h31.082c0.357,0,0.688-0.19,0.866-0.5s0.179-0.69,0-1L50.866,24.019c-0.357-0.619-1.375-0.619-1.732,0   L33.593,50.936c-0.179,0.31-0.179,0.69,0,1S34.102,52.436,34.459,52.436z M50,26.519l13.809,23.917H36.191L50,26.519z"/><path d="M50,32.643c-0.553,0-1,0.448-1,1v8.456c0,0.552,0.447,1,1,1s1-0.448,1-1v-8.456C51,33.09,50.553,32.643,50,32.643z"/><path d="M50,44.736c-0.553,0-1,0.448-1,1v1.082c0,0.552,0.447,1,1,1s1-0.448,1-1v-1.082C51,45.184,50.553,44.736,50,44.736z"/><path d="M91.466,10.039H8.534c-2.5,0-4.534,2.034-4.534,4.534V59.64v4.867v22.21c0,1.789,1.455,3.245,3.244,3.245h7.694   c1.789,0,3.244-1.456,3.244-3.245V69.041H39.07v7.831H36c-0.438,0-0.825,0.285-0.955,0.704l-2.999,9.67   c-0.094,0.304-0.038,0.634,0.15,0.89s0.487,0.407,0.805,0.407h33.998c0.317,0,0.616-0.151,0.805-0.407s0.244-0.586,0.15-0.89   l-2.999-9.67c-0.13-0.418-0.517-0.704-0.955-0.704h-3.07v-7.831h30.536c2.5,0,4.534-2.034,4.534-4.534V14.572   C96,12.072,93.966,10.039,91.466,10.039z M41.07,77.872v-8.83H58.93v8.83v3.84H41.07V77.872z M63.263,78.872l2.379,7.67H34.358   l2.379-7.67h2.333v3.84c0,0.552,0.447,1,1,1H59.93c0.553,0,1-0.448,1-1v-3.84H63.263z M94,14.572v47.47H18.183V59.64   c0-1.789-1.455-3.245-3.244-3.245h-0.714V15.718c0-0.143-0.031-0.285-0.09-0.415l-1.49-3.265h78.821   C92.863,12.039,94,13.175,94,14.572z M9.958,15.936l1.134-2.482l1.133,2.482v40.46H9.958V15.936z M8.958,58.396h4.267h1.714   c0.686,0,1.244,0.558,1.244,1.245v2.402H6V59.64c0-0.687,0.559-1.245,1.244-1.245H8.958z M12.243,76.813H9.939v-8.467h2.304V76.813   z M13.243,66.346H8.939H6.528v-2.304h9.126v2.304H13.243z M6,68.346h1.939v8.467H6V68.346z M6.528,78.813h2.411h4.304h2.411v2.304   H6.528V78.813z M14.243,76.813v-8.467h1.939v8.467H14.243z M8.534,12.039h1.004l-1.49,3.264c-0.06,0.13-0.091,0.272-0.091,0.416   v40.677H7.244c-0.441,0-0.861,0.09-1.244,0.25V14.572C6,13.175,7.137,12.039,8.534,12.039z M14.938,87.961H7.244   C6.559,87.961,6,87.403,6,86.717v-3.599h10.183v3.599C16.183,87.403,15.624,87.961,14.938,87.961z M91.466,67.041H18.183v-2.999H94   v0.465C94,65.904,92.863,67.041,91.466,67.041z"/></g></svg>