<?xml version="1.0" ?><svg style="enable-background:new 0 0 100 100;" version="1.1" viewBox="0 0 100 100" xml:space="preserve" xmlns="http://www.w3.org/2000/svg" xmlns:xlink="http://www.w3.org/1999/xlink"><g id="network"/><g id="connection"/><g id="page"/><g id="support"/><g id="configuration"/><g id="cloud_storage"/><g id="password"/><g id="search_engine"/><g id="history"/><g id="SEO"/><g id="optimization"/><g id="backlink"/><g id="performance"/><g id="analytics"/><g id="security"/><g id="dark_web"/><g id="video_player"><g><path d="M91,13H9c-2.8,0-5,2.2-5,5v64c0,2.8,2.2,5,5,5h82c2.8,0,5-2.2,5-5V18C96,15.2,93.8,13,91,13z M9,15h82c1.7,0,3,1.3,3,3v7    H6v-7C6,16.3,7.3,15,9,15z M91,85H9c-1.7,0-3-1.3-3-3V27h88v55C94,83.7,92.7,85,91,85z"/><circle cx="88" cy="20" r="2"/><circle cx="82" cy="20" r="2"/><circle cx="76" cy="20" r="2"/><path d="M67,30H12c-1.7,0-3,1.3-3,3v46c0,1.7,1.3,3,3,3h55c1.7,0,3-1.3,3-3V33C70,31.3,68.7,30,67,30z M68,79c0,0.6-0.4,1-1,1H12    c-0.6,0-1-0.4-1-1V33c0-0.6,0.4-1,1-1h55c0.6,0,1,0.4,1,1V79z"/><path d="M88,30H76c-1.7,0-3,1.3-3,3v10c0,1.7,1.3,3,3,3h12c1.7,0,3-1.3,3-3V33C91,31.3,89.7,30,88,30z M89,43c0,0.6-0.4,1-1,1H76    c-0.6,0-1-0.4-1-1V33c0-0.6,0.4-1,1-1h12c0.6,0,1,0.4,1,1V43z"/><path d="M88,48H76c-1.7,0-3,1.3-3,3v10c0,1.7,1.3,3,3,3h12c1.7,0,3-1.3,3-3V51C91,49.3,89.7,48,88,48z M89,61c0,0.6-0.4,1-1,1H76    c-0.6,0-1-0.4-1-1V51c0-0.6,0.4-1,1-1h12c0.6,0,1,0.4,1,1V61z"/><path d="M88,66H76c-1.7,0-3,1.3-3,3v10c0,1.7,1.3,3,3,3h12c1.7,0,3-1.3,3-3V69C91,67.3,89.7,66,88,66z M89,79c0,0.6-0.4,1-1,1H76    c-0.6,0-1-0.4-1-1V69c0-0.6,0.4-1,1-1h12c0.6,0,1,0.4,1,1V79z"/><path d="M50.6,51.7l-17.1-10c-1.6-0.9-3.4-0.9-5,0C26.9,42.5,26,44.2,26,46v20c0,1.8,0.9,3.4,2.5,4.3c0.8,0.4,1.6,0.7,2.5,0.7    c0.9,0,1.7-0.2,2.5-0.7l17.1-10c1.5-0.9,2.5-2.5,2.5-4.3S52.2,52.6,50.6,51.7z M49.6,58.6l-17.1,10c-0.9,0.6-2.1,0.6-3,0    C28.6,68.1,28,67.1,28,66V46c0-1.1,0.6-2.1,1.5-2.6c0.5-0.3,1-0.4,1.5-0.4c0.5,0,1,0.1,1.5,0.4l17.1,10c0.9,0.5,1.5,1.5,1.5,2.6    S50.5,58,49.6,58.6z"/></g></g><g id="upload_download"/><g id="incognito_tab"/><g id="bookmark"/></svg>